<svg width="90.1" height="90.1" viewBox="0 0 23.839 23.839">
  <defs/>
  <g stroke="#fff" stroke-width=".026" paint-order="markers fill stroke">
    <path fill="#4a0f59" d="M2.66.013h2.645V2.66H2.659zM10.597.013h2.645V2.66h-2.645zM7.95.013h2.647V2.66H7.95zM15.888.013h2.646V2.66h-2.646z"/>
    <path fill="#4a0f59" d="M13.242.013h2.646V2.66h-2.646zM18.534.013h2.646V2.66h-2.646zM5.305 2.66H7.95v2.645H5.305zM2.66 2.66h2.645v2.645H2.659zM10.597 2.66h2.645v2.645h-2.645zM7.95 2.66h2.647v2.645H7.95zM15.888 2.66h2.646v2.645h-2.646z"/>
    <path fill="#4a0f59" d="M13.242 2.66h2.646v2.645h-2.646zM18.534 2.66h2.646v2.645h-2.646zM2.66 5.305h2.645V7.95H2.659zM10.597 5.305h2.645V7.95h-2.645zM18.534 5.305h2.646V7.95h-2.646zM2.66 7.95h2.645v2.647H2.659zM7.95 7.95h2.647v2.647H7.95zM13.242 7.95h2.646v2.647h-2.646zM18.534 7.95h2.646v2.647h-2.646zM2.66 10.597h2.645v2.645H2.659zM10.597 10.597h2.645v2.645h-2.645zM7.95 10.597h2.647v2.645H7.95zM13.242 10.597h2.646v2.645h-2.646zM18.534 10.597h2.646v2.645h-2.646zM2.66 13.242h2.645v2.646H2.659zM10.597 13.242h2.645v2.646h-2.645zM7.95 13.242h2.647v2.646H7.95zM13.242 13.242h2.646v2.646h-2.646zM18.534 13.242h2.646v2.646h-2.646z"/>
    <path fill="#4a0f59" d="M2.66 15.888h2.645v2.646H2.659zM10.597 15.888h2.645v2.646h-2.645zM7.95 15.888h2.647v2.646H7.95zM13.242 15.888h2.646v2.646h-2.646zM18.534 15.888h2.646v2.646h-2.646zM5.305 18.534H7.95v2.646H5.305zM2.66 18.534h2.645v2.646H2.659zM10.597 18.534h2.645v2.646h-2.645zM7.95 18.534h2.647v2.646H7.95zM15.888 18.534h2.646v2.646h-2.646z"/>
    <path fill="#4a0f59" d="M13.242 18.534h2.646v2.646h-2.646zM18.534 18.534h2.646v2.646h-2.646zM5.305 21.18H7.95v2.646H5.305zM2.66 21.18h2.645v2.646H2.659zM7.95 21.18h2.647v2.646H7.95zM15.888 21.18h2.646v2.646h-2.646z"/>
    <path fill="#4a0f59" d="M13.242 21.18h2.646v2.646h-2.646zM18.534 21.18h2.646v2.646h-2.646z"/>
    <path fill="#fff" d="M5.305 15.888H7.95v2.646H5.305zM5.305 10.597H7.95v2.645H5.305zM5.305 7.95H7.95v2.647H5.305zM5.305 5.305H7.95V7.95H5.305zM7.95 5.305h2.647V7.95H7.95zM10.597 7.95h2.645v2.647h-2.645zM13.242 5.305h2.646V7.95h-2.646z"/>
    <path fill="#fff" d="M15.888 5.305h2.646V7.95h-2.646zM15.888 7.95h2.646v2.647h-2.646zM15.888 10.597h2.646v2.645h-2.646zM15.888 13.242h2.646v2.646h-2.646z"/>
    <path fill="#fff" d="M15.888 15.888h2.646v2.646h-2.646z"/>
    <path fill="#4a0f59" d="M10.597 21.18h2.645v2.646h-2.645zM5.305.013H7.95V2.66H5.305zM21.18.013h2.646V2.66H21.18zM21.18 2.66h2.646v2.645H21.18zM21.18 5.305h2.646V7.95H21.18zM21.18 7.95h2.646v2.647H21.18zM21.18 10.597h2.646v2.645H21.18zM21.18 13.242h2.646v2.646H21.18z"/>
    <path fill="#4a0f59" d="M21.18 15.888h2.646v2.646H21.18zM21.18 18.534h2.646v2.646H21.18zM21.18 21.18h2.646v2.646H21.18zM.013.013H2.66V2.66H.013zM.013 2.66H2.66v2.645H.013zM.013 5.305H2.66V7.95H.013zM.013 7.95H2.66v2.647H.013zM.013 10.597H2.66v2.645H.013zM.013 13.242H2.66v2.646H.013z"/>
    <path fill="#4a0f59" d="M.013 15.888H2.66v2.646H.013zM.013 18.534H2.66v2.646H.013zM.013 21.18H2.66v2.646H.013z"/>
    <path fill="#fff" d="M5.305 13.242H7.95v2.646H5.305z"/>
  </g>
</svg>